<?xml version="1.0" encoding="utf-8"?>
<!-- Generator: Adobe Illustrator 24.3.0, SVG Export Plug-In . SVG Version: 6.00 Build 0)  -->
<svg version="1.1" id="Слой_1" xmlns="http://www.w3.org/2000/svg" xmlns:xlink="http://www.w3.org/1999/xlink" x="0px" y="0px"
	 viewBox="0 0 814.3115845 244.2783356" style="enable-background:new 0 0 814.3115845 244.2783356;" xml:space="preserve">
<style type="text/css">
	.st0{fill:#FFFFFF;}
</style>
<rect class="st0" width="814.3115845" height="244.2783356"/>
<g>
	<g>
		<g>
			<g>
				<path d="M354.3054199,152.7971802h-11.7740173v-26.6005478h-30.525116v26.6731186h-11.7740173V90.8020325h11.7740173v26.4550629
					h30.525116V90.8020325h11.7740173V152.7971802z"/>
			</g>
			<g>
				<path d="M276.6116638,143.6395721c-2.907135,2.9071503-6.2503662,5.1602783-10.0296631,6.8317413
					c-3.7793274,1.5989075-7.703949,2.3984375-11.7740021,2.3984375s-7.9220276-0.79953-11.7012939-2.3984375
					c-3.706604-1.6716461-6.9771576-3.9245911-9.8843079-6.7591705c-2.9071655-2.8345795-5.1601868-6.1049652-6.9044952-9.8843994
					c-1.7443237-3.7794495-2.5437622-7.7766113-2.5437622-12.0647736c0-4.0700836,0.7994385-7.9219284,2.3983917-11.628624
					c1.6716003-3.779274,3.9246826-7.1225662,6.7591248-9.9569778c2.8345032-2.9071579,6.1050415-5.1602783,9.8843231-6.9044952
					c3.7792664-1.7442245,7.7766418-2.5437622,12.064682-2.5437622c4.0699921,0,7.9946747,0.7995377,11.7740021,2.4710083
					c3.7792969,1.5989075,7.1225281,3.8520203,10.0296631,6.7591782l-6.90448,6.9044952
					c-2.2530212-1.7442245-4.6514893-3.1252289-7.0498657-4.142662c-2.398407-1.0901794-5.0148621-1.6716461-7.9220276-1.6716461
					s-5.596283,0.5814667-8.1400452,1.6716461c-2.4710999,1.0174332-4.651474,2.5437622-6.5411072,4.4334869
					c-1.8169708,1.8897247-3.2705536,4.0700836-4.4333954,6.6138458c-1.0175171,2.4710159-1.5989532,5.1602783-1.5989532,8.0674362
					s0.5087738,5.5962372,1.5989532,8.1399918c1.0901794,2.4710236,2.5437622,4.6513977,4.4333954,6.5411072
					c1.8896332,1.8169861,4.0700073,3.2705536,6.5411072,4.4334869c2.5437622,1.0174408,5.2328796,1.5989075,8.1400452,1.5989075
					s5.4509277-0.5087128,7.7766418-1.5989075c2.3257446-1.0174408,4.3607483-2.4710083,6.0323486-4.1426544
					L276.6116638,143.6395721z"/>
			</g>
			<g>
				<path d="M406.5615845,90.6567154l31.2519226,62.3585434h-12.6461487l-18.6057739-39.2466125l-18.5331421,39.2466125h-12.5734253
					L406.5615845,90.6567154z"/>
			</g>
			<g>
				<path d="M523.4292603,153.0878296v-10.3931274h41.6450195v10.3931274H523.4292603z M565.0015869,116.6757965v10.3931274
					h-41.6450195v-10.3931274H565.0015869z M523.4292603,90.7294617h41.6450195v10.3931274h-41.6450195V90.7294617z"/>
			</g>
			<g>
				<path d="M616.5309448,90.6567154l31.2519531,62.3585434h-12.6461792l-18.6057739-39.2466125l-18.5330811,39.2466125h-12.6461792
					L616.5309448,90.6567154z"/>
			</g>
			<g>
				<path d="M713.8480225,90.7294617v39.2466125c0,0.5814819-0.0726318,1.5263367-0.1453247,2.9071655
					c-0.0726318,1.3082581-0.2907104,2.8344116-0.7267456,4.5787964c-0.4360962,1.7444153-1.1629028,3.4886322-2.1804199,5.3781738
					c-0.9448242,1.8169708-2.3256836,3.4886169-4.1426392,5.0875244c-1.7443237,1.5263367-4.0700073,2.7618408-6.8318481,3.7066956
					c-2.6890869,0.9448547-6.1050415,1.3808289-10.102356,1.3808289c-3.8520508,0-7.0498657-0.436142-9.7390137-1.3808289
					c-2.6890869-1.0174255-4.8694458-2.2531128-6.5410767-3.7066956c-1.7443237-1.5263367-3.0524902-3.2705536-3.9973755-5.0875244
					c-0.8720703-1.8897247-1.5262451-3.7066956-1.9622803-5.3781738c-0.3634033-1.7442169-0.6541138-3.2705383-0.7268066-4.5787964
					c-0.0726318-1.3808289-0.0726318-2.3256836-0.0726318-2.9071655V90.7294617h10.3931274v39.2466125
					c0,0.5814819,0.0726318,1.6716614,0.1453247,3.1252441c0.1453247,1.5263062,0.6541138,3.0524597,1.3809204,4.6513672
					c0.7994385,1.5263367,2.0350342,2.9071655,3.706604,4.1426697c1.7442627,1.2355042,4.2153931,1.8169708,7.413208,1.8169708
					c3.4158325,0,6.0323486-0.5814667,7.9219971-1.8169708s3.2705688-2.6165161,4.0700073-4.1426697
					c0.8721313-1.5989075,1.3809204-3.1252289,1.5262451-4.6513672c0.1453247-1.5261536,0.2180786-2.5437622,0.2180786-3.1252441
					V90.7294617H713.8480225z"/>
			</g>
			<g>
				<path d="M499.4452209,101.122406V90.7292862h-51.6746826v10.3931198h20.42276v51.8200989h10.4657593V101.122406H499.4452209z"/>
			</g>
		</g>
	</g>
	<g>
		<polygon points="148.594101,149.4457703 152.0825653,152.9433289 155.5706024,149.4457703 152.0821381,145.9486389 		"/>
		<polygon points="128.1927948,122.0000916 124.7048187,118.5033875 121.2159271,122.0000916 124.7046356,125.497467 		"/>
		<polygon points="152.0817108,128.3250427 145.2787323,135.1452942 152.0817108,141.9640198 158.8850555,135.1452942 		"/>
		<polygon points="152.0817719,98.0519104 155.5706024,94.5544128 152.0817108,91.0577087 148.594101,94.5544128 
			151.8855438,97.8551941 		"/>
		<polygon points="152.0817108,115.6759949 158.8851166,108.8557434 152.0817108,102.0361633 145.2787323,108.8557434 		"/>
		<polygon points="163.0330048,91.0577087 154.0689545,100.0440369 162.8591156,108.8556824 152.0817108,119.6602478 
			141.304306,108.8556824 150.0944672,100.0440369 141.1308441,91.0577087 121.2159271,111.021637 130.1799164,120.0079041 
			138.9701996,111.1955261 149.7476044,122.0000916 138.9701996,132.8038025 130.1800995,123.9922791 121.2159271,132.9794006 
			141.1308441,152.9424744 150.0944061,143.9562073 141.304306,135.1454163 152.0817108,124.3407898 162.8591156,135.1454163 
			154.0693207,143.9559021 163.0330048,152.9424744 182.948349,132.9794006 173.9845428,123.9923401 165.1945038,132.8038025 
			154.4166107,122.0000916 165.1945038,111.1955261 173.984726,120.007843 182.948349,111.021637 		"/>
		<polygon points="145.7732391,122.0000916 138.9702606,115.1797791 132.16716,122.0000916 138.9702606,128.8204041 		"/>
		<polygon points="175.9719086,122.0000916 179.4598236,125.4972839 182.948349,122.0000916 179.4595795,118.5035095 		"/>
		<path d="M164.703537,70.4838562c-9.8582153,0-15.3852539,0-25.2434082,0l-38.7669678,38.8630981
			c0,9.8826294,0,15.4234009,0,25.3060303l38.7669678,38.8631592c9.8581543,0,15.3851929,0,25.2434082,0l38.7669678-38.8631592
			c0-9.8826294,0-15.4234009,0-25.3060303L164.703537,70.4838562z M186.9227142,122.0000916l-5.475769,5.4893799l5.475769,5.4899292
			l-23.8897095,23.9472656l-5.4750977-5.4886475l-5.4753418,5.489502l-5.4762573-5.4901123l-5.4754639,5.4892578
			l-23.888855-23.9472656l5.475647-5.4897461l-5.475647-5.489563l5.475708-5.4889526l-5.475708-5.489502l23.888855-23.9481201
			l5.4754639,5.4892578l5.4754028-5.4892578l5.4759521,5.4888916l5.4753418-5.4888916l23.8897095,23.9481201l-5.4758301,5.4896851
			L186.9227142,122.0000916z"/>
		<polygon points="158.390976,122.0000916 165.1944427,128.8204041 171.9975433,122.0000916 165.1944427,115.1797791 		"/>
	</g>
</g>
</svg>
